<?xml version="1.0" encoding="UTF-8"?>
<svg version="1.1" xmlns="http://www.w3.org/2000/svg" width="130" height="181">
<path d="M0 0 C42.9 0 85.8 0 130 0 C130 59.73 130 119.46 130 181 C87.1 181 44.2 181 0 181 C0 121.27 0 61.54 0 0 Z " fill="#0D7A48" transform="translate(0,0)"/>
<path d="M0 0 C16.83 0 33.66 0 51 0 C49.87514657 7.87397403 49.87514657 7.87397403 49.00024414 11.04833984 C48.70972923 12.11512466 48.70972923 12.11512466 48.41334534 13.20346069 C48.20604294 13.94842804 47.99874054 14.69339539 47.78515625 15.4609375 C47.46145302 16.64594345 47.46145302 16.64594345 47.13121033 17.85488892 C46.44562458 20.36270529 45.75446872 22.86893805 45.0625 25.375 C44.37483334 27.87411077 43.68844729 30.37355605 43.00450134 32.87368774 C42.58052967 34.42264643 42.15438669 35.97101321 41.7256012 37.51864624 C40.31892097 42.64637694 39.11056488 47.80030495 38 53 C38.66 53 39.32 53 40 53 C40.13277344 52.33613281 40.26554687 51.67226562 40.40234375 50.98828125 C40.93489583 48.32552083 41.46744792 45.66276042 42 43 C42.13792969 42.19433594 42.27585938 41.38867188 42.41796875 40.55859375 C43.11951163 37.47463007 44.18446586 34.67943552 45.375 31.75 C45.79523437 30.69296875 46.21546875 29.6359375 46.6484375 28.546875 C48 26 48 26 51 25 C51.66 24.34 52.32 23.68 53 23 C53.66 24.65 54.32 26.3 55 28 C55.33 28 55.66 28 56 28 C56.33 18.76 56.66 9.52 57 0 C64.52974139 -0.02290222 72.05936291 -0.04283138 79.58911133 -0.05493164 C82.15291757 -0.0599737 84.71672091 -0.06680714 87.28051758 -0.07543945 C90.95655021 -0.08751064 94.63254498 -0.09322942 98.30859375 -0.09765625 C99.46274277 -0.10281754 100.61689178 -0.10797882 101.80601501 -0.11329651 C103.3975515 -0.11340981 103.3975515 -0.11340981 105.02124023 -0.11352539 C105.96055893 -0.115746 106.89987762 -0.11796661 107.86766052 -0.12025452 C110 0 110 0 111 1 C111 4.3 111 7.6 111 11 C96.81 11 82.62 11 68 11 C68.495 31.295 68.495 31.295 69 52 C69.33 52 69.66 52 70 52 C70.11580335 65.47346992 70.2046699 78.94682162 70.25906086 92.42068768 C70.28516466 98.67704014 70.32057816 104.93305236 70.37719727 111.18920898 C70.43148737 117.22573507 70.46141463 123.26193371 70.47438622 129.29868507 C70.48363135 131.60283375 70.50168486 133.90696431 70.52865028 136.21097374 C70.56489937 139.43621045 70.5699469 142.66009071 70.56762695 145.88549805 C70.58560333 146.83999847 70.60357971 147.7944989 70.62210083 148.77792358 C70.58669035 153.32159374 70.50191571 155.34252025 67.67155457 159.05012512 C64.8358421 161.11981315 62.38857462 162.13315533 59 163 C59 163.66 59 164.32 59 165 C67.25 165 75.5 165 84 165 C84.81478908 158.50298529 84.81478908 158.50298529 85.5625 152 C85.68818359 150.8553125 85.68818359 150.8553125 85.81640625 149.6875 C85.87699219 149.130625 85.93757813 148.57375 86 148 C86.33 148 86.66 148 87 148 C87 154.27 87 160.54 87 167 C59.28 167 31.56 167 3 167 C3.99 163.37 4.98 159.74 6 156 C3.69 156 1.38 156 -1 156 C1.93303026 144.02857527 5.07363878 132.11819421 8.27038383 120.21483612 C9.14293519 116.96553958 10.0137042 113.71576973 10.88404846 110.46588135 C13.04532432 102.39688298 15.20918853 94.32857944 17.37365723 86.26043701 C19.20810908 79.42233477 21.04120624 72.58387231 22.87245369 65.74491119 C23.72017322 62.58111372 24.56981839 59.41783776 25.41954041 56.25457764 C28.15912046 46.03484626 30.84128677 35.80571197 33.3650198 25.53026962 C33.55172772 24.77216114 33.73843565 24.01405266 33.93080139 23.23297119 C34.16959314 22.25532995 34.16959314 22.25532995 34.41320896 21.25793839 C35.21913791 18.15676983 36.11974412 15.08089557 37 12 C18.685 11.505 18.685 11.505 0 11 C0 7.37 0 3.74 0 0 Z " fill="#069F57" transform="translate(11,14)"/>
<path d="M0 0 C16.83 0 33.66 0 51 0 C50.27972891 5.04189764 49.44097965 9.44453066 48.1015625 14.30078125 C47.91132004 14.99643188 47.72107758 15.69208252 47.52507019 16.40881348 C47.11241062 17.91686744 46.69795561 19.42443103 46.28189087 20.93154907 C45.13252431 25.09751559 43.99832576 29.26761272 42.86328125 33.4375 C42.62552475 34.31001907 42.38776825 35.18253815 42.14280701 36.08149719 C39.6340103 45.30818622 37.22103297 54.55923889 34.8125 63.8125 C30.23625276 81.37282335 25.56946672 98.9084812 20.875 116.4375 C20.37113266 118.32077499 20.37113266 118.32077499 19.85708618 120.24209595 C18.90323421 123.80622829 17.94799759 127.36998608 16.9921875 130.93359375 C16.70416763 132.00968903 16.41614777 133.0857843 16.11940002 134.19448853 C15.85425095 135.18145721 15.58910187 136.1684259 15.31591797 137.18530273 C15.08484344 138.04679428 14.85376892 138.90828583 14.61569214 139.79588318 C14.12701544 141.54529733 13.5743914 143.27682581 13 145 C25.21 145 37.42 145 50 145 C50 148.63 50 152.26 50 156 C33.17 156 16.34 156 -1 156 C3.5930515 137.62779401 3.5930515 137.62779401 5.85327148 129.22949219 C6.10917053 128.27417099 6.36506958 127.31884979 6.62872314 126.33457947 C7.17535897 124.29450834 7.72258937 122.25459644 8.27038383 120.21483612 C9.14293519 116.96553958 10.0137042 113.71576973 10.88404846 110.46588135 C13.04532432 102.39688298 15.20918853 94.32857944 17.37365723 86.26043701 C19.20810908 79.42233477 21.04120624 72.58387231 22.87245369 65.74491119 C23.72017322 62.58111372 24.56981839 59.41783776 25.41954041 56.25457764 C28.15912046 46.03484626 30.84128677 35.80571197 33.3650198 25.53026962 C33.55172772 24.77216114 33.73843565 24.01405266 33.93080139 23.23297119 C34.16959314 22.25532995 34.16959314 22.25532995 34.41320896 21.25793839 C35.21913791 18.15676983 36.11974412 15.08089557 37 12 C18.685 11.505 18.685 11.505 0 11 C0 7.37 0 3.74 0 0 Z " fill="#F4FBF9" transform="translate(11,14)"/>
<path d="M0 0 C17.49 0 34.98 0 53 0 C53 3.3 53 6.6 53 10 C38.81 10 24.62 10 10 10 C10 58.18 10 106.36 10 156 C6.7 156.33 3.4 156.66 0 157 C0 105.19 0 53.38 0 0 Z " fill="#F9FDFD" transform="translate(68,14)"/>
<path d="M0 0 C0 31.35 0 62.7 0 95 C-9.9 95 -19.8 95 -30 95 C-30 70.58 -30 46.16 -30 21 C-27.01316188 23.98683812 -25.10321377 26.98917898 -23.0625 30.625 C-22.53136597 31.55735474 -22.53136597 31.55735474 -21.98950195 32.50854492 C-19.63450485 36.69936562 -17.59246887 40.92426508 -15.88671875 45.42578125 C-15.02701535 47.36398302 -15.02701535 47.36398302 -12 48 C-11.5875 48.53625 -11.175 49.0725 -10.75 49.625 C-8.88461173 51.41238609 -8.88461173 51.41238609 -5.3125 50.6875 C-4.219375 50.460625 -3.12625 50.23375 -2 50 C-1.51710162 38.2472061 -1.51710162 38.2472061 -4.9453125 27.16015625 C-6.70891497 23.54803711 -7.77697762 19.69694493 -9 15.875 C-9.90607139 13.07152253 -9.90607139 13.07152253 -11.0859375 10.828125 C-12.34884657 8.30230687 -12.6210332 5.77908987 -13 3 C-8.86395936 0.24263957 -4.91089275 0 0 0 Z " fill="#12633F" transform="translate(129,86)"/>
<path d="M0 0 C0.33 0 0.66 0 1 0 C1 3.3 1 6.6 1 10 C-13.19 10 -27.38 10 -42 10 C-41.505 30.295 -41.505 30.295 -41 51 C-40.67 51 -40.34 51 -40 51 C-39.88419665 64.47346992 -39.7953301 77.94682162 -39.74093914 91.42068768 C-39.71483534 97.67704014 -39.67942184 103.93305236 -39.62280273 110.18920898 C-39.56851263 116.22573507 -39.53858537 122.26193371 -39.52561378 128.29868507 C-39.51636865 130.60283375 -39.49831514 132.90696431 -39.47134972 135.21097374 C-39.43510063 138.43621045 -39.4300531 141.66009071 -39.43237305 144.88549805 C-39.41439667 145.83999847 -39.39642029 146.7944989 -39.37789917 147.77792358 C-39.41330965 152.32159374 -39.49808429 154.34252025 -42.32844543 158.05012512 C-45.1641579 160.11981315 -47.61142538 161.13315533 -51 162 C-51 162.66 -51 163.32 -51 164 C-42.75 164 -34.5 164 -26 164 C-25.18521092 157.50298529 -25.18521092 157.50298529 -24.4375 151 C-24.31181641 149.8553125 -24.31181641 149.8553125 -24.18359375 148.6875 C-24.12300781 148.130625 -24.06242187 147.57375 -24 147 C-23.67 147 -23.34 147 -23 147 C-23 153.27 -23 159.54 -23 166 C-50.72 166 -78.44 166 -107 166 C-106.01 162.37 -105.02 158.74 -104 155 C-89.48 155 -74.96 155 -60 155 C-60 151.37 -60 147.74 -60 144 C-72.21 144 -84.42 144 -97 144 C-95 134 -95 134 -93 130 C-93 133.63 -93 137.26 -93 141 C-76.17 141.495 -76.17 141.495 -59 142 C-58.67 142.99 -58.34 143.98 -58 145 C-57.01 144.67 -56.02 144.34 -55 144 C-55 147.96 -55 151.92 -55 156 C-51.04 155.67 -47.08 155.34 -43 155 C-43 106.82 -43 58.64 -43 9 C-28.81 9 -14.62 9 0 9 C0 6.03 0 3.06 0 0 Z " fill="#04A65B" transform="translate(121,15)"/>
<path d="M0 0 C42.9 0 85.8 0 130 0 C130 59.73 130 119.46 130 181 C129.67 181 129.34 181 129 181 C129 122.59 129 64.18 129 4 C86.43 4 43.86 4 0 4 C0 2.68 0 1.36 0 0 Z " fill="#B5D3C7" transform="translate(0,0)"/>
<path d="M0 0 C17.49 0 34.98 0 53 0 C53 0.33 53 0.66 53 1 C35.84 1 18.68 1 1 1 C1.33 3.97 1.66 6.94 2 10 C2.07999266 12.18193133 2.12216475 14.3656912 2.12025452 16.54908752 C2.12162918 17.77309769 2.12300385 18.99710785 2.12442017 20.25820923 C2.12082489 21.57235809 2.11722961 22.88650696 2.11352539 24.24047852 C2.11324284 25.66050718 2.11340258 27.08053599 2.1139679 28.50056458 C2.11425322 32.33050098 2.10839949 36.16040567 2.10139394 39.99033475 C2.09511612 44.00217605 2.09455311 48.01401819 2.09336853 52.02586365 C2.09026822 59.61167108 2.08207245 67.197464 2.07201904 74.78326505 C2.06081741 83.42417797 2.05533727 92.06509161 2.05032361 100.70600998 C2.03988868 118.47068153 2.02231455 136.2353396 2 154 C3.98 153.67 5.96 153.34 8 153 C7.99777939 152.25120071 7.99555878 151.50240143 7.99327087 150.73091125 C7.96565317 140.92478373 7.94796798 131.11866023 7.9375 121.3125 C7.93664398 120.5164032 7.93578796 119.7203064 7.93490601 118.90008545 C7.91062278 93.2628246 8.09827971 67.63409751 8.5 42 C8.51195782 41.23654392 8.52391563 40.47308784 8.53623581 39.68649673 C8.68161296 30.45750328 8.83589938 21.2286811 9 12 C9.33 12 9.66 12 10 12 C10 59.52 10 107.04 10 156 C6.7 156.33 3.4 156.66 0 157 C0 105.19 0 53.38 0 0 Z " fill="#C8EEE1" transform="translate(68,14)"/>
<path d="M0 0 C0 0.66 0 1.32 0 2 C0.66 2 1.32 2 2 2 C2 1.34 2 0.68 2 0 C20.15 0 38.3 0 57 0 C57.495 0.99 57.495 0.99 58 2 C40.51 2 23.02 2 5 2 C5 16.19 5 30.38 5 45 C4.67 45 4.34 45 4 45 C3.67 40.38 3.34 35.76 3 31 C2.67 31 2.34 31 2 31 C1.67 29.35 1.34 27.7 1 26 C-2.00260526 27.04354937 -2.89396577 27.80650897 -4.44921875 30.64453125 C-4.85785156 31.68996094 -5.26648437 32.73539063 -5.6875 33.8125 C-6.31205078 35.36904297 -6.31205078 35.36904297 -6.94921875 36.95703125 C-7.88257998 39.6599621 -8.48054178 42.19671685 -9 45 C-9.50057865 46.77666515 -10.02131883 48.54777878 -10.5625 50.3125 C-10.83191406 51.19550781 -11.10132813 52.07851562 -11.37890625 52.98828125 C-11.58386719 53.65214844 -11.78882813 54.31601563 -12 55 C-12.66 55 -13.32 55 -14 55 C-14.33 55.99 -14.66 56.98 -15 58 C-14.39312229 53.28471006 -13.52317667 48.76827171 -12.328125 44.16796875 C-12.16382996 43.53248611 -11.99953491 42.89700348 -11.83026123 42.24226379 C-11.48237947 40.89973259 -11.13268082 39.557671 -10.78125 38.21606445 C-10.26156515 36.23166122 -9.74743463 34.24589078 -9.234375 32.25976562 C-6.60296585 22.13781111 -3.79998259 12.07993733 -1 2 C-17.83 2 -34.66 2 -52 2 C-52 5.63 -52 9.26 -52 13 C-39.46 13 -26.92 13 -14 13 C-14.33 14.65 -14.66 16.3 -15 18 C-15.99 18 -16.98 18 -18 18 C-18.6489624 17.26547607 -18.6489624 17.26547607 -19.31103516 16.51611328 C-21.80545383 14.27697769 -23.72348432 14.67496169 -27.0234375 14.7421875 C-28.209375 14.75636719 -29.3953125 14.77054688 -30.6171875 14.78515625 C-32.47730469 14.82962891 -32.47730469 14.82962891 -34.375 14.875 C-36.8202379 14.91848226 -39.26555608 14.95770815 -41.7109375 14.9921875 C-42.79681152 15.01651855 -43.88268555 15.04084961 -45.00146484 15.06591797 C-47.80439622 15.00430003 -50.27878081 14.6464078 -53 14 C-53 13.34 -53 12.68 -53 12 C-53.66 12 -54.32 12 -55 12 C-55.13536774 10.56510191 -55.23217143 9.12652893 -55.3125 7.6875 C-55.37050781 6.88699219 -55.42851563 6.08648437 -55.48828125 5.26171875 C-55 3 -55 3 -53.06762695 1.37475586 C-48.78877451 -0.54281025 -45.06289847 -0.35546553 -40.4296875 -0.2578125 C-39.51164337 -0.25119598 -38.59359924 -0.24457947 -37.6477356 -0.23776245 C-34.72314514 -0.214411 -31.79931934 -0.17070001 -28.875 -0.125 C-25.94363258 -0.08992545 -23.01230751 -0.05914214 -20.08084106 -0.03366089 C-18.25889152 -0.01669696 -16.43698682 0.00643438 -14.61520386 0.03634644 C-13.37844406 0.05098434 -13.37844406 0.05098434 -12.11669922 0.06591797 C-11.03012527 0.08282181 -11.03012527 0.08282181 -9.92160034 0.10006714 C-1.41067925 -0.3431382 -1.41067925 -0.3431382 0 0 Z " fill="#166B47" transform="translate(63,12)"/>
<path d="M0 0 C0.33 0 0.66 0 1 0 C1 3.3 1 6.6 1 10 C-13.19 10 -27.38 10 -42 10 C-41.67 23.53 -41.34 37.06 -41 51 C-40.67 51 -40.34 51 -40 51 C-39.88419665 64.47346992 -39.7953301 77.94682162 -39.74093914 91.42068768 C-39.71483534 97.67704014 -39.67942184 103.93305236 -39.62280273 110.18920898 C-39.56851263 116.22573507 -39.53858537 122.26193371 -39.52561378 128.29868507 C-39.51636865 130.60283375 -39.49831514 132.90696431 -39.47134972 135.21097374 C-39.43510063 138.43621045 -39.4300531 141.66009071 -39.43237305 144.88549805 C-39.41439667 145.83999847 -39.39642029 146.7944989 -39.37789917 147.77792358 C-39.43417452 154.99885466 -39.43417452 154.99885466 -42.53547668 158.13215637 C-43.34876938 158.74854477 -44.16206207 159.36493317 -45 160 C-45.33 159.34 -45.66 158.68 -46 158 C-47.98 158 -49.96 158 -52 158 C-52.33 157.34 -52.66 156.68 -53 156 C-49.7 155.67 -46.4 155.34 -43 155 C-43 106.82 -43 58.64 -43 9 C-28.81 9 -14.62 9 0 9 C0 6.03 0 3.06 0 0 Z " fill="#399E71" transform="translate(121,15)"/>
<path d="M0 0 C1.56728822 3.13457644 0.1685999 5.99268131 -0.69213867 9.23461914 C-0.88455202 9.98137594 -1.07696537 10.72813274 -1.27520943 11.49751854 C-1.91988871 13.99112627 -2.57502026 16.48185931 -3.23046875 18.97265625 C-3.6882952 20.73222741 -4.14565915 22.49191896 -4.60258484 24.25172424 C-6.05644012 29.83764633 -7.52639059 35.41926105 -9 41 C-9.23553841 41.89274376 -9.47107681 42.78548752 -9.71375275 43.70528412 C-12.74183362 55.17659723 -15.80150121 66.63930661 -18.87915039 78.09741211 C-20.09060143 82.60798432 -21.29696085 87.1199022 -22.50213337 91.63215542 C-23.45474391 95.19594745 -24.41044369 98.75890578 -25.36699486 102.32164192 C-25.81327815 103.98557932 -26.25855681 105.64978659 -26.70269203 107.31429863 C-29.54602626 117.96364177 -32.62822148 128.50562814 -36 139 C-34.35 139 -32.7 139 -31 139 C-31.99 139.99 -32.98 140.98 -34 142 C-34.99 141.34 -35.98 140.68 -37 140 C-37.26518132 135.82339427 -37.31886422 132.95659266 -36 129 C-36.66 128.34 -37.32 127.68 -38 127 C-37.34 125.68 -36.68 124.36 -36 123 C-35.34 123 -34.68 123 -34 123 C-33.87882812 122.43152344 -33.75765625 121.86304688 -33.6328125 121.27734375 C-32.82399911 117.5505805 -31.971808 113.90602666 -30.875 110.25 C-30.0827221 107.3072535 -29.81693925 105.02050241 -30 102 C-29.34 102 -28.68 102 -28 102 C-28 98.37 -28 94.74 -28 91 C-26.515 90.505 -26.515 90.505 -25 90 C-24.87625 89.34 -24.7525 88.68 -24.625 88 C-24.14785643 85.70971087 -23.5655483 83.44108506 -22.9375 81.1875 C-22.04581412 77.73706332 -22.01502717 74.66075194 -22.12109375 71.08984375 C-21.84576648 66.338228 -20.38085453 61.38085453 -17 58 C-16.39029265 56.10817726 -16.39029265 56.10817726 -16 53.9375 C-15.35142427 50.73065335 -14.64924368 47.55376104 -13.875 44.375 C-13.19909625 41.40622278 -13 39.17698521 -13 36.0625 C-13 33 -13 33 -11 31 C-10.83312552 28.41645782 -10.83312552 28.41645782 -11 26 C-10.01 26 -9.02 26 -8 26 C-7.80664062 25.18015625 -7.61328125 24.3603125 -7.4140625 23.515625 C-7.15367188 22.43796875 -6.89328125 21.3603125 -6.625 20.25 C-6.24214844 18.64898437 -6.24214844 18.64898437 -5.8515625 17.015625 C-5 14 -5 14 -3.9296875 11.90234375 C-2.51131491 9.00004354 -2.55221316 6.11005596 -2.34375 2.92578125 C-2.2303125 2.29027344 -2.116875 1.65476563 -2 1 C-1.34 0.67 -0.68 0.34 0 0 Z " fill="#245F46" transform="translate(46,31)"/>
<path d="M0 0 C2.4375 2.0625 2.4375 2.0625 4 5 C4.25 8.8125 4.25 8.8125 4 12 C2.02 12.99 2.02 12.99 0 14 C0 14.66 0 15.32 0 16 C-1.258125 16.020625 -2.51625 16.04125 -3.8125 16.0625 C-4.52019531 16.07410156 -5.22789063 16.08570312 -5.95703125 16.09765625 C-8 16 -8 16 -11 15 C-13.01533913 12.38005913 -12.99724596 10.84577357 -12.9375 7.5 C-12 4 -12 4 -9.875 1.5625 C-6.21807781 -0.42495771 -4.10348509 -0.67147938 0 0 Z " fill="#F8FBFB" transform="translate(103,71)"/>
<path d="M0 0 C0.33 0 0.66 0 1 0 C1.33 4.95 1.66 9.9 2 15 C5.50926856 12.66048763 5.57275081 11.86821821 6.5625 7.9375 C7.25390625 5.21484375 7.25390625 5.21484375 8 3 C8.66 2.67 9.32 2.34 10 2 C9.34555889 9.36246248 7.46111005 16.26302259 5.5 23.375 C5.17902344 24.56222656 4.85804687 25.74945313 4.52734375 26.97265625 C2.14773261 35.70453477 2.14773261 35.70453477 1 38 C0.34 38 -0.32 38 -1 38 C-1.6875 35.8125 -1.6875 35.8125 -2 33 C-1.01810813 31.32260138 -0.01866229 29.65532623 1 28 C0.72688465 24.90469271 -0.2229157 23.66562645 -2 21 C-2.28875 22.03125 -2.5775 23.0625 -2.875 24.125 C-3.82308798 27.45007997 -4.88256594 30.72751453 -6 34 C-6.66 34 -7.32 34 -8 34 C-7.34887891 26.59005856 -5.42228272 19.65307831 -3.4375 12.5 C-3.10814453 11.29601562 -2.77878906 10.09203125 -2.43945312 8.8515625 C-1.63119406 5.89965982 -0.81792254 2.94923686 0 0 Z " fill="#F5FAF7" transform="translate(23,120)"/>
<path d="M0 0 C0.33 0 0.66 0 1 0 C1 6.27 1 12.54 1 19 C-26.72 19 -54.44 19 -83 19 C-82.01 15.37 -81.02 11.74 -80 8 C-65.48 8 -50.96 8 -36 8 C-36 8.33 -36 8.66 -36 9 C-36.98395752 9.02505615 -37.96791504 9.0501123 -38.98168945 9.07592773 C-42.63270057 9.1701082 -46.28352616 9.2703029 -49.93432617 9.37231445 C-51.51436015 9.41562305 -53.09443969 9.45730106 -54.67456055 9.49731445 C-56.94594048 9.55511583 -59.21709189 9.6187816 -61.48828125 9.68359375 C-62.19463211 9.70030624 -62.90098297 9.71701874 -63.6287384 9.73423767 C-66.6664824 9.8259747 -69.09623058 10.03207686 -72 11 C-74.00875442 10.72428861 -76.01178687 10.39764263 -78 10 C-77.979375 10.94875 -77.95875 11.8975 -77.9375 12.875 C-78 16 -78 16 -79 18 C-78.21232239 17.98747192 -77.42464478 17.97494385 -76.61309814 17.96203613 C-69.14104779 17.84336168 -61.66898376 17.72560627 -54.19690323 17.60884857 C-50.35668396 17.54881035 -46.51647068 17.48843346 -42.67626953 17.42724609 C-38.96097816 17.36806204 -35.2456731 17.30981524 -31.53035736 17.25218201 C-30.12239826 17.23018351 -28.71444415 17.20786362 -27.30649567 17.18519592 C-18.87017023 17.04962008 -10.437443 16.96886279 -2 17 C-1.27945952 11.33861055 -0.61726196 5.67355671 0 0 Z " fill="#149B5D" transform="translate(97,162)"/>
<path d="M0 0 C1.5 1 1.5 1 3 3 C3.59970512 8.99705118 2.60229221 12.50627201 0 18 C-0.75590947 20.38402218 -1.47133824 22.77434263 -2.15625 25.1796875 C-2.4346875 25.78039062 -2.713125 26.38109375 -3 27 C-3.99 27.33 -4.98 27.66 -6 28 C-7.63305288 24.73389423 -7.14276152 21.14736773 -7.125 17.5625 C-7.12886719 16.78583984 -7.13273437 16.00917969 -7.13671875 15.20898438 C-7.13099989 11.88918828 -7.05668831 9.17006494 -6 6 C-5.34 6 -4.68 6 -4 6 C-4 5.01 -4 4.02 -4 3 C-3.34 3 -2.68 3 -2 3 C-1.67 2.34 -1.34 1.68 -1 1 C-0.67 0.67 -0.34 0.34 0 0 Z " fill="#F5FAF9" transform="translate(31,107)"/>
<path d="M0 0 C0.33 0 0.66 0 1 0 C1.05472088 1.39538254 1.09311538 2.79140897 1.125 4.1875 C1.14820313 4.96480469 1.17140625 5.74210938 1.1953125 6.54296875 C1 9 1 9 -1 14 C14.51 14 30.02 14 46 14 C46 11.36 46 8.72 46 6 C34.12 6 22.24 6 10 6 C10 5.67 10 5.34 10 5 C22.21 5 34.42 5 47 5 C47 8.63 47 12.26 47 16 C30.17 16 13.34 16 -4 16 C-2.68 10.72 -1.36 5.44 0 0 Z " fill="#BFEFDC" transform="translate(14,154)"/>
<path d="M0 0 C16.83 0 33.66 0 51 0 C51 0.33 51 0.66 51 1 C34.5 1 18 1 1 1 C1 3.64 1 6.28 1 9 C2.08007324 8.96447021 3.16014648 8.92894043 4.27294922 8.89233398 C8.27214087 8.7621701 12.27152103 8.63893794 16.27099609 8.51782227 C18.00347759 8.4643827 19.7359018 8.40905182 21.46826172 8.35180664 C23.95527798 8.26995007 26.4424195 8.19485012 28.9296875 8.12109375 C29.70682098 8.09405869 30.48395447 8.06702362 31.28463745 8.03916931 C36.77225659 7.88612829 36.77225659 7.88612829 39 9 C39.72159424 10.64363134 40.39351421 12.31050386 41 14 C40.34 14 39.68 14 39 14 C38.896875 14.66 38.79375 15.32 38.6875 16 C37.80786436 19.83841009 36.43030104 23.33096691 35 27 C34 23 34 23 37 12 C18.685 11.505 18.685 11.505 0 11 C0 7.37 0 3.74 0 0 Z " fill="#A4C6B9" transform="translate(11,14)"/>
<path d="M0 0 C0 0.66 0 1.32 0 2 C-17.16 2 -34.32 2 -52 2 C-52 5.63 -52 9.26 -52 13 C-39.46 13 -26.92 13 -14 13 C-14.33 14.65 -14.66 16.3 -15 18 C-15.99 18 -16.98 18 -18 18 C-18.6489624 17.26547607 -18.6489624 17.26547607 -19.31103516 16.51611328 C-21.80545383 14.27697769 -23.72348432 14.67496169 -27.0234375 14.7421875 C-28.209375 14.75636719 -29.3953125 14.77054688 -30.6171875 14.78515625 C-32.47730469 14.82962891 -32.47730469 14.82962891 -34.375 14.875 C-36.8202379 14.91848226 -39.26555608 14.95770815 -41.7109375 14.9921875 C-42.79681152 15.01651855 -43.88268555 15.04084961 -45.00146484 15.06591797 C-47.80439622 15.00430003 -50.27878081 14.6464078 -53 14 C-53 13.34 -53 12.68 -53 12 C-53.66 12 -54.32 12 -55 12 C-55.13536774 10.56510191 -55.23217143 9.12652893 -55.3125 7.6875 C-55.37050781 6.88699219 -55.42851563 6.08648437 -55.48828125 5.26171875 C-55 3 -55 3 -53.06762695 1.37475586 C-48.78877451 -0.54281025 -45.06289847 -0.35546553 -40.4296875 -0.2578125 C-39.51164337 -0.25119598 -38.59359924 -0.24457947 -37.6477356 -0.23776245 C-34.72314514 -0.214411 -31.79931934 -0.17070001 -28.875 -0.125 C-25.94363258 -0.08992545 -23.01230751 -0.05914214 -20.08084106 -0.03366089 C-18.25889152 -0.01669696 -16.43698682 0.00643438 -14.61520386 0.03634644 C-13.37844406 0.05098434 -13.37844406 0.05098434 -12.11669922 0.06591797 C-11.03012527 0.08282181 -11.03012527 0.08282181 -9.92160034 0.10006714 C-1.41067925 -0.3431382 -1.41067925 -0.3431382 0 0 Z " fill="#1F5D43" transform="translate(63,12)"/>
<path d="M0 0 C0.33 0 0.66 0 1 0 C1.14316933 7.73114399 0.76321074 15.44338254 -1 23 C-1.66 23 -2.32 23 -3 23 C-2.67 23.99 -2.34 24.98 -2 26 C-2.9609375 28.7421875 -2.9609375 28.7421875 -4.375 31.875 C-6.05488955 35.61955827 -7.28565928 38.96494024 -8 43 C-8.50057865 44.77666515 -9.02131883 46.54777878 -9.5625 48.3125 C-9.83191406 49.19550781 -10.10132813 50.07851562 -10.37890625 50.98828125 C-10.58386719 51.65214844 -10.78882813 52.31601563 -11 53 C-11.66 53 -12.32 53 -13 53 C-13.33 53.99 -13.66 54.98 -14 56 C-13.39312229 51.28471006 -12.52317667 46.76827171 -11.328125 42.16796875 C-11.16528015 41.53760712 -11.0024353 40.90724548 -10.83465576 40.25778198 C-10.31036318 38.23331082 -9.78040967 36.21037625 -9.25 34.1875 C-8.88786219 32.7955328 -8.52588373 31.40352413 -8.1640625 30.01147461 C-5.54907914 19.97790674 -2.84492425 9.97091238 0 0 Z " fill="#1C714B" transform="translate(62,14)"/>
<path d="M0 0 C4.16449422 3.73368447 6.2435007 7.73050211 8 13 C8.95326172 13.42152344 8.95326172 13.42152344 9.92578125 13.8515625 C12.85801793 15.47506077 13.15827993 17.24112991 14.1875 20.375 C14.51105469 21.33148438 14.83460937 22.28796875 15.16796875 23.2734375 C16 26 16 26 16.49609375 28.27734375 C16.85113088 30.1949685 16.85113088 30.1949685 18.875 31.1875 C20.56752155 31.83464059 22.28096593 32.42698864 24 33 C25.60408671 31.78282434 25.60408671 31.78282434 27 30 C27.22132148 27.84054533 27.22132148 27.84054533 26.8125 25.5625 C26.71582031 24.80066406 26.61914062 24.03882812 26.51953125 23.25390625 C25.98180483 20.92106305 25.07799932 19.12519865 24 17 C23.875 14.25 23.875 14.25 24 12 C23.34 12 22.68 12 22 12 C22 10.02 22 8.04 22 6 C25.00858983 9.00858983 25.83535999 12.64811763 27.1875 16.625 C27.47302734 17.40746094 27.75855469 18.18992187 28.05273438 18.99609375 C29.91016205 24.44635599 30.3748416 28.36377155 29 34 C26 36 26 36 22.8125 35.625 C21.884375 35.41875 20.95625 35.2125 20 35 C19.67 34.01 19.34 33.02 19 32 C18.3598999 31.8460376 17.7197998 31.6920752 17.06030273 31.53344727 C15 31 15 31 13.89086914 29.45288086 C13.60848389 28.79682861 13.32609863 28.14077637 13.03515625 27.46484375 C12.71240723 26.74143799 12.3896582 26.01803223 12.05712891 25.27270508 C11.72890137 24.5020874 11.40067383 23.73146973 11.0625 22.9375 C10.36718048 21.37586219 9.66800494 19.81593516 8.96484375 18.2578125 C8.62952637 17.5143457 8.29420898 16.77087891 7.94873047 16.00488281 C6.83668793 13.65488454 5.55776824 11.48078429 4.125 9.3125 C2.13995581 6.21816641 0.97020885 3.52803216 0 0 Z " fill="#0E9859" transform="translate(98,102)"/>
<path d="M0 0 C3.02008666 5.03347777 3.54506579 8.27680919 3 14 C0.86111111 18.56944444 0.86111111 18.56944444 -2 20 C-7.94235916 20.29224717 -11.66545847 19.66727076 -17 17 C-18.64745596 15.35254404 -18.1709616 13.44664549 -18.1875 11.1875 C-18.20167969 10.31480469 -18.21585937 9.44210938 -18.23046875 8.54296875 C-17.98572808 5.84252509 -17.47582004 4.26158088 -16 2 C-10.86746048 -0.56626976 -5.59454489 -0.19901543 0 0 Z M-15 5 C-15.9438518 8.52371339 -16.35505396 10.87566247 -15.25 14.375 C-14.00281178 16.309697 -14.00281178 16.309697 -11 17 C-9.60560336 17.06665376 -8.20830125 17.08538199 -6.8125 17.0625 C-5.554375 17.041875 -4.29625 17.02125 -3 17 C-3 16.34 -3 15.68 -3 15 C-1.68 14.34 -0.36 13.68 1 13 C1.31087045 9.03640173 1.32482417 6.61066944 -0.5625 3.0625 C-2.91799017 0.71094609 -2.91799017 0.71094609 -6.4375 0.4375 C-10.60304024 1.09521688 -12.23254381 1.82556496 -15 5 Z " fill="#21915F" transform="translate(106,70)"/>
<path d="M0 0 C0.33 0 0.66 0 1 0 C1 3.63 1 7.26 1 11 C2.02472412 11.02505615 3.04944824 11.0501123 4.10522461 11.07592773 C7.89409676 11.16984484 11.68277881 11.27010317 15.47143555 11.37231445 C17.11364303 11.41572297 18.75589739 11.45739358 20.39819336 11.49731445 C22.75388745 11.5548744 25.10934428 11.61860892 27.46484375 11.68359375 C28.20339096 11.70030624 28.94193817 11.71701874 29.7028656 11.73423767 C34.88612829 11.88612829 34.88612829 11.88612829 36 13 C36.07244053 15.01964199 36.08377188 17.04167124 36.0625 19.0625 C36.05347656 20.16722656 36.04445312 21.27195313 36.03515625 22.41015625 C36.02355469 23.26480469 36.01195312 24.11945313 36 25 C35.34 25 34.68 25 34 25 C34 21.37 34 17.74 34 14 C21.79 14 9.58 14 -3 14 C-1 4 -1 4 0 0 Z " fill="#3DA376" transform="translate(27,145)"/>
<path d="M0 0 C18.15 0 36.3 0 55 0 C55.495 0.99 55.495 0.99 56 2 C38.51 2 21.02 2 3 2 C3 8.27 3 14.54 3 21 C2.67 21 2.34 21 2 21 C1.67 19.35 1.34 17.7 1 16 C0.67 16 0.34 16 0 16 C0 12.7 0 9.4 0 6 C-0.66 6.99 -1.32 7.98 -2 9 C-2 6.69 -2 4.38 -2 2 C-1.34 2 -0.68 2 0 2 C0 1.34 0 0.68 0 0 Z " fill="#1E5C43" transform="translate(65,12)"/>
<path d="M0 0 C2.4375 2.0625 2.4375 2.0625 4 5 C4.25 8.8125 4.25 8.8125 4 12 C2.02 12.99 2.02 12.99 0 14 C0 13.34 0 12.68 0 12 C0.66 12 1.32 12 2 12 C0.87302957 7.03088634 0.87302957 7.03088634 -2 3 C-4.53951544 3.09111938 -4.53951544 3.09111938 -7 4 C-9.29013653 7.4352048 -9.17842973 8.985331 -9 13 C-4.545 13.99 -4.545 13.99 0 15 C0 15.33 0 15.66 0 16 C-1.258125 16.020625 -2.51625 16.04125 -3.8125 16.0625 C-4.52019531 16.07410156 -5.22789063 16.08570312 -5.95703125 16.09765625 C-8 16 -8 16 -11 15 C-13.01533913 12.38005913 -12.99724596 10.84577357 -12.9375 7.5 C-12 4 -12 4 -9.875 1.5625 C-6.21807781 -0.42495771 -4.10348509 -0.67147938 0 0 Z " fill="#CEF4E4" transform="translate(103,71)"/>
<path d="M0 0 C16.5 0 33 0 50 0 C48.7323136 5.70458879 47.43936146 11.34536569 46 17 C45.67 17 45.34 17 45 17 C44.8200072 11.78020872 45.02905192 7.92737019 47 3 C44.71368506 1.85684253 43.45652594 1.87887268 40.91748047 1.88647461 C40.07675995 1.88655014 39.23603943 1.88662567 38.36984253 1.88670349 C37.46146637 1.89186478 36.55309021 1.89702606 35.6171875 1.90234375 C34.68778351 1.9037587 33.75837952 1.90517365 32.80081177 1.90663147 C29.82550876 1.91223947 26.85028036 1.92479332 23.875 1.9375 C21.86067817 1.94251397 19.84635516 1.94707705 17.83203125 1.95117188 C12.88799198 1.9622115 7.94400865 1.97948151 3 2 C3 3.98 3 5.96 3 8 C2.01 8 1.02 8 0 8 C0 5.36 0 2.72 0 0 Z " fill="#E8FCF4" transform="translate(12,15)"/>
<path d="M0 0 C4.29 0 8.58 0 13 0 C9.81237635 2.12508244 7.73487777 2.5020163 4 3 C4.66 5.97 5.32 8.94 6 12 C6.33 12 6.66 12 7 12 C7.25394531 12.85722656 7.50789063 13.71445313 7.76953125 14.59765625 C9.85010312 21.78411969 9.85010312 21.78411969 12.6875 28.6875 C14.42755042 33.07905581 14.72657421 37.31404772 15 42 C13.48979927 39.11175149 12.29200666 36.21646451 11.1953125 33.1484375 C10.85886719 32.21386719 10.52242187 31.27929688 10.17578125 30.31640625 C9.82902344 29.34574219 9.48226562 28.37507813 9.125 27.375 C6.83451394 20.97383173 4.49579513 14.6285732 1.82763672 8.37353516 C1 6 1 6 0 0 Z " fill="#067040" transform="translate(113,86)"/>
<path d="M0 0 C10.89 0 21.78 0 33 0 C33 2.97 33 5.94 33 9 C18.81 9 4.62 9 -10 9 C-10.33 9.66 -10.66 10.32 -11 11 C-11 10.01 -11 9.02 -11 8 C2.53 7.67 16.06 7.34 30 7 C30.66 5.02 31.32 3.04 32 1 C21.44 1 10.88 1 0 1 C0 0.67 0 0.34 0 0 Z " fill="#EAFEF6" transform="translate(88,15)"/>
<path d="M0 0 C1.98 0.99 1.98 0.99 4 2 C3.67 2.94875 3.34 3.8975 3 4.875 C1.89840809 7.77062452 1.89840809 7.77062452 2 10 C1.34 10 0.68 10 0 10 C0 6.7 0 3.4 0 0 Z M-43 10 C-28.81 10 -14.62 10 0 10 C-2 12 -2 12 -5.66772461 12.1953125 C-7.24604394 12.1814274 -8.82429337 12.15727525 -10.40234375 12.125 C-11.23584854 12.11742676 -12.06935333 12.10985352 -12.92811584 12.10205078 C-16.50171563 12.06927908 -20.07486256 12.01305261 -23.64819336 11.95898438 C-26.2537221 11.92287895 -28.85917702 11.898648 -31.46484375 11.875 C-32.2742894 11.85840332 -33.08373505 11.84180664 -33.91770935 11.82470703 C-37.82107869 11.79051108 -39.67354671 11.78236447 -43 14 C-43 12.68 -43 11.36 -43 10 Z " fill="#1F5F44" transform="translate(122,15)"/>
<path d="M0 0 C0.33 0 0.66 0 1 0 C1 12.21 1 24.42 1 37 C-5.93 36.505 -5.93 36.505 -13 36 C-12.67 35.34 -12.34 34.68 -12 34 C-11.36191406 34.01160156 -10.72382812 34.02320313 -10.06640625 34.03515625 C-9.24011719 34.04417969 -8.41382812 34.05320313 -7.5625 34.0625 C-6.32693359 34.07990234 -6.32693359 34.07990234 -5.06640625 34.09765625 C-3.00836062 34.23267348 -3.00836062 34.23267348 -2 33 C-1.76894879 30.55602113 -1.59674731 28.13347472 -1.46484375 25.68359375 C-1.42186661 24.95253922 -1.37888947 24.22148468 -1.33460999 23.46827698 C-1.19786155 21.12491396 -1.06761458 18.78123983 -0.9375 16.4375 C-0.84612993 14.85218888 -0.75433859 13.26690199 -0.66210938 11.68164062 C-0.43651044 7.78802501 -0.21674303 3.89411823 0 0 Z " fill="#247D56" transform="translate(128,49)"/>
<path d="M0 0 C1.54109962 3.08219925 0.20539525 5.79719586 -0.65234375 8.9765625 C-0.83132706 9.66181 -1.01031036 10.3470575 -1.19471741 11.05307007 C-1.76901086 13.24552025 -2.35312635 15.4352174 -2.9375 17.625 C-3.32812268 19.10920442 -3.71810488 20.59357756 -4.10742188 22.078125 C-5.06418834 25.72075082 -6.02977275 29.36093745 -7 33 C-11 28.25 -11 28.25 -11 26 C-10.01 26 -9.02 26 -8 26 C-7.80664062 25.18015625 -7.61328125 24.3603125 -7.4140625 23.515625 C-7.15367188 22.43796875 -6.89328125 21.3603125 -6.625 20.25 C-6.36976562 19.18265625 -6.11453125 18.1153125 -5.8515625 17.015625 C-5 14 -5 14 -3.9296875 11.90234375 C-2.51131491 9.00004354 -2.55221316 6.11005596 -2.34375 2.92578125 C-2.2303125 2.29027344 -2.116875 1.65476563 -2 1 C-1.34 0.67 -0.68 0.34 0 0 Z " fill="#237450" transform="translate(46,31)"/>
<path d="M0 0 C1.49881429 3.92324194 0.47248103 6.78883576 -0.65234375 10.734375 C-0.83132706 11.37240051 -1.01031036 12.01042603 -1.19471741 12.66778564 C-1.7664936 14.69791373 -2.35176979 16.72385898 -2.9375 18.75 C-3.32837165 20.12865205 -3.71835591 21.50755603 -4.10742188 22.88671875 C-5.06134841 26.26079272 -6.02741744 29.63124998 -7 33 C-8.01656307 29.42099031 -7.8409108 26.98522047 -7.125 23.3125 C-6.94195312 22.33925781 -6.75890625 21.36601563 -6.5703125 20.36328125 C-6 18 -6 18 -5 17 C-4.71437237 14.25706804 -4.55160727 11.51391162 -4.37890625 8.76171875 C-4.00943111 6.06874012 -3.36432437 4.32542737 -2 2 C-1.34 2 -0.68 2 0 2 C0 1.34 0 0.68 0 0 Z " fill="#DAF9EB" transform="translate(45,74)"/>
<path d="M0 0 C0.33 0 0.66 0 1 0 C0.41026945 17.89527199 0.41026945 17.89527199 -3 25 C-3.33 25.99 -3.66 26.98 -4 28 C-4.66 28 -5.32 28 -6 28 C-6.33 28.99 -6.66 29.98 -7 31 C-6.24861106 24.37065709 -4.58871479 18.01794529 -2.9375 11.5625 C-2.65583984 10.44939453 -2.37417969 9.33628906 -2.08398438 8.18945312 C-1.39253227 5.45880329 -0.69778507 2.72903708 0 0 Z " fill="#418D6C" transform="translate(55,39)"/>
<path d="M0 0 C3.3 0 6.6 0 10 0 C13.00028072 5.00046787 13.73473035 8.30583982 13 14 C11.0625 16.5 11.0625 16.5 8 18 C4.96693712 18.30432069 2.03570795 18.23809474 -1 18 C-1 17.67 -1 17.34 -1 17 C1.64 17 4.28 17 7 17 C7 16.34 7 15.68 7 15 C7.99 14.34 8.98 13.68 10 13 C10.3960214 9.43580741 10.41209885 6.92116214 8.9375 3.625 C6.15340041 1.28994873 3.54909302 1.26785608 0 1 C0 0.67 0 0.34 0 0 Z " fill="#3F9D74" transform="translate(96,70)"/>
<path d="M0 0 C0.33 0 0.66 0 1 0 C2.3490038 6.72189323 1.43109419 11.13537491 -0.9375 17.5 C-1.22818359 18.32242188 -1.51886719 19.14484375 -1.81835938 19.9921875 C-2.53050332 22.00019995 -3.26315893 24.00091815 -4 26 C-4.66 26 -5.32 26 -6 26 C-4.60213923 17.15301274 -2.39537771 8.61638292 0 0 Z " fill="#31966A" transform="translate(47,70)"/>
<path d="M0 0 C0.33 0 0.66 0 1 0 C1.20894115 5.3488935 0.51677322 9.84747788 -0.875 15 C-1.04902344 15.67289063 -1.22304688 16.34578125 -1.40234375 17.0390625 C-2.53344036 21.37912208 -3.75458126 25.69152436 -5 30 C-5.66 30 -6.32 30 -7 30 C-6.36617071 23.2605493 -4.77702547 17.00449379 -2.9375 10.5 C-2.65583984 9.48679687 -2.37417969 8.47359375 -2.08398438 7.4296875 C-1.39434817 4.95167266 -0.69958811 2.47522 0 0 Z " fill="#35A06F" transform="translate(35,115)"/>
<path d="M0 0 C1.22593201 3.53592259 0.75776142 5.84903969 -0.21484375 9.421875 C-0.48876953 10.44667969 -0.76269531 11.47148437 -1.04492188 12.52734375 C-1.33947266 13.59082031 -1.63402344 14.65429688 -1.9375 15.75 C-2.22818359 16.82894531 -2.51886719 17.90789062 -2.81835938 19.01953125 C-3.53702685 21.68213534 -4.26451873 24.34200049 -5 27 C-5.33 27 -5.66 27 -6 27 C-5.27044025 7.90566038 -5.27044025 7.90566038 0 0 Z " fill="#CFFAE9" transform="translate(32,122)"/>
<path d="M0 0 C0.33 0 0.66 0 1 0 C1.58132326 7.4118716 -0.10368157 14.16120131 -3 21 C-3.99 21.66 -4.98 22.32 -6 23 C-5.37650642 20.47878568 -4.75124639 17.95803069 -4.125 15.4375 C-3.86396484 14.38079102 -3.86396484 14.38079102 -3.59765625 13.30273438 C-2.48705185 8.83975002 -1.28798784 4.41512948 0 0 Z " fill="#3E765E" transform="translate(62,14)"/>
<path d="M0 0 C10.56 0 21.12 0 32 0 C32 0.33 32 0.66 32 1 C28.64596947 1.16948199 25.29175736 1.33507306 21.9375 1.5 C20.99455078 1.54769531 20.05160156 1.59539063 19.08007812 1.64453125 C15.03733584 1.84173819 11.01673179 2.02789859 6.96875 1.96875 C3.98617524 2.00014552 2.4835502 2.41052787 0 4 C0 2.68 0 1.36 0 0 Z " fill="#1E5A41" transform="translate(0,4)"/>
<path d="M0 0 C2.48291009 3.01802003 3.91340355 5.89683437 5.25 9.5625 C5.60578125 10.51253906 5.9615625 11.46257812 6.328125 12.44140625 C7 15 7 15 6 18 C3.24504247 15.63860783 2.30761472 13.58947346 1.3125 10.125 C1.06113281 9.28195313 0.80976562 8.43890625 0.55078125 7.5703125 C-0.00715419 4.96661379 -0.09988136 2.65399031 0 0 Z " fill="#0D9D5B" transform="translate(113,90)"/>
<path d="M0 0 C0.33 0 0.66 0 1 0 C2.2168371 4.98903209 1.63900226 8.16925648 0 13 C-0.37125 14.134375 -0.7425 15.26875 -1.125 16.4375 C-1.558125 17.7059375 -1.558125 17.7059375 -2 19 C-2.66 19 -3.32 19 -4 19 C-3.37968409 12.42465139 -1.85102717 6.33307408 0 0 Z " fill="#D7EFE6" transform="translate(19,135)"/>
<path d="M0 0 C0.33 0 0.66 0 1 0 C1 6.27 1 12.54 1 19 C-3.29 19 -7.58 19 -12 19 C-11.67 18.34 -11.34 17.68 -11 17 C-10.04287109 17.01740234 -10.04287109 17.01740234 -9.06640625 17.03515625 C-8.24011719 17.04417969 -7.41382812 17.05320312 -6.5625 17.0625 C-5.32693359 17.07990234 -5.32693359 17.07990234 -4.06640625 17.09765625 C-2.00836062 17.23267348 -2.00836062 17.23267348 -1 16 C-0.76321284 13.30764224 -0.57801975 10.63501844 -0.4375 7.9375 C-0.39431641 7.17888672 -0.35113281 6.42027344 -0.30664062 5.63867188 C-0.20026367 3.75934562 -0.09960066 1.87969756 0 0 Z " fill="#128E57" transform="translate(127,66)"/>
<path d="M0 0 C1.32 0.66 2.64 1.32 4 2 C3.67 2.66 3.34 3.32 3 4 C0.66255706 4.46806645 -1.69739079 4.82669794 -4.0625 5.125 C-5.99802734 5.37636719 -5.99802734 5.37636719 -7.97265625 5.6328125 C-9.47119141 5.81457031 -9.47119141 5.81457031 -11 6 C-9.38749206 4.28087996 -7.71675713 2.61502338 -6 1 C-3.8125 1.3125 -3.8125 1.3125 -2 2 C-1.34 1.34 -0.68 0.68 0 0 Z " fill="#108953" transform="translate(101,66)"/>
<path d="M0 0 C0.66 0.33 1.32 0.66 2 1 C1.11223998 4.69900008 0.05418136 8.34550461 -1 12 C-1.66 12 -2.32 12 -3 12 C-3.33 12.66 -3.66 13.32 -4 14 C-2.28571429 2.28571429 -2.28571429 2.28571429 0 0 Z " fill="#165E40" transform="translate(28,90)"/>
<path d="M0 0 C0.66 0 1.32 0 2 0 C2.66 1.65 3.32 3.3 4 5 C3.34 5 2.68 5 2 5 C1.896875 5.66 1.79375 6.32 1.6875 7 C0.80786436 10.83841009 -0.56969896 14.33096691 -2 18 C-3.29252526 14.37921732 -2.67164791 12.0607165 -1.5625 8.4375 C-0.64763512 5.41393311 0 3.17025502 0 0 Z " fill="#C4E2D6" transform="translate(48,23)"/>
<path d="M0 0 C0.33 0 0.66 0 1 0 C1.20674944 5.78898419 0.59162079 10.42932723 -1 16 C-1.66 16 -2.32 16 -3 16 C-3.33 16.99 -3.66 17.98 -4 19 C-3.37968409 12.42465139 -1.85102717 6.33307408 0 0 Z " fill="#CDE7DE" transform="translate(37,68)"/>
<path d="M0 0 C0.66 0 1.32 0 2 0 C1.34 3.3 0.68 6.6 0 10 C-0.99 10.33 -1.98 10.66 -3 11 C-2.88590407 9.54077307 -2.75834456 8.08259402 -2.625 6.625 C-2.55539062 5.81289062 -2.48578125 5.00078125 -2.4140625 4.1640625 C-2 2 -2 2 0 0 Z " fill="#09693C" transform="translate(15,170)"/>
<path d="M0 0 C0.66 0 1.32 0 2 0 C2 5.28 2 10.56 2 16 C1.67 16 1.34 16 1 16 C1 14.02 1 12.04 1 10 C0.34 10 -0.32 10 -1 10 C-0.67 6.7 -0.34 3.4 0 0 Z " fill="#205A42" transform="translate(127,4)"/>
<path d="M0 0 C0.66 0 1.32 0 2 0 C1.44854729 5.23880078 0.57077907 9.97350697 -1 15 C-1.33 15 -1.66 15 -2 15 C-2.21755666 9.5610835 -2.10428384 5.12919186 0 0 Z " fill="#2B624C" transform="translate(17,135)"/>
<path d="M0 0 C1.29065057 3.8719517 0.22324098 6.44232601 -0.9375 10.1875 C-1.23043945 11.16879883 -1.23043945 11.16879883 -1.52929688 12.16992188 C-2.01182563 13.78227407 -2.50490205 15.39146289 -3 17 C-4.15903767 13.53110711 -3.85595132 10.94327972 -3.1875 7.375 C-3.01605469 6.41335937 -2.84460937 5.45171875 -2.66796875 4.4609375 C-2 2 -2 2 0 0 Z " fill="#CDF8E7" transform="translate(41,90)"/>
<path d="M0 0 C0.33 0 0.66 0 1 0 C1.19392201 5.52677733 0.7479503 9.75614911 -1 15 C-1.66 15 -2.32 15 -3 15 C-2.35812082 9.86496656 -1.31727753 5.0056546 0 0 Z " fill="#D5EEE4" transform="translate(23,120)"/>
<path d="M0 0 C0.33 0 0.66 0 1 0 C1.35050464 5.841744 1.16727335 9.8531808 -2 15 C-3.31534494 11.34142468 -2.65468309 8.91973519 -1.5625 5.25 C-1.27503906 4.26515625 -0.98757812 3.2803125 -0.69140625 2.265625 C-0.46324219 1.51796875 -0.23507812 0.7703125 0 0 Z " fill="#D2EDE3" transform="translate(14,154)"/>
<path d="M0 0 C1.25541557 3.76624671 0.37061958 5.37188934 -1 9 C-1.66 9 -2.32 9 -3 9 C-3.75 6.75 -3.75 6.75 -4 4 C-2.0625 1.6875 -2.0625 1.6875 0 0 Z " fill="#DBFBEE" transform="translate(25,149)"/>
<path d="M0 0 C1.1171875 1.703125 1.1171875 1.703125 2 4 C1.3203125 6.359375 1.3203125 6.359375 0.125 8.75 C-0.26429687 9.54921875 -0.65359375 10.3484375 -1.0546875 11.171875 C-1.36664063 11.77515625 -1.67859375 12.3784375 -2 13 C-2.33 13 -2.66 13 -3 13 C-3 10.69 -3 8.38 -3 6 C-2.34 6 -1.68 6 -1 6 C-0.67 4.02 -0.34 2.04 0 0 Z " fill="#0F9D5D" transform="translate(44,90)"/>
<path d="M0 0 C-0.99 1.485 -0.99 1.485 -2 3 C-5.625 3.1875 -5.625 3.1875 -9 3 C-9.33 2.34 -9.66 1.68 -10 1 C-6.59437148 0.22157062 -3.49234244 -0.09978121 0 0 Z " fill="#1A9A61" transform="translate(78,170)"/>
<path d="M0 0 C0.70125 0.309375 1.4025 0.61875 2.125 0.9375 C5.08936657 2.03302678 7.87698108 2.56422992 11 3 C11 3.33 11 3.66 11 4 C9.741875 4.020625 8.48375 4.04125 7.1875 4.0625 C6.47980469 4.07410156 5.77210937 4.08570312 5.04296875 4.09765625 C3 4 3 4 0 3 C0 2.01 0 1.02 0 0 Z " fill="#C3F1DD" transform="translate(92,83)"/>
<path d="M0 0 C2.79872437 2.52788007 4.45773019 4.20411134 5 8 C3.68 8.33 2.36 8.66 1 9 C0.67 6.03 0.34 3.06 0 0 Z " fill="#0E693F" transform="translate(31,52)"/>
<path d="M0 0 C2.83374881 3.20336822 3.5205537 5.78087253 4 10 C1.2027092 7.93243723 0.97307727 6.85559629 0.3125 3.3125 C0.209375 2.219375 0.10625 1.12625 0 0 Z " fill="#15955A" transform="translate(113,90)"/>
<path d="M0 0 C0.66 0.33 1.32 0.66 2 1 C0.5 3 0.5 3 -2 5 C-4.75871627 5.35800135 -7.20097524 5.18660165 -10 5 C-10 4.67 -10 4.34 -10 4 C-8.906875 3.896875 -7.81375 3.79375 -6.6875 3.6875 C-3.14440371 3.02692273 -2.06756277 2.7972908 0 0 Z " fill="#0F985A" transform="translate(106,85)"/>
<path d="M0 0 C0.33 0 0.66 0 1 0 C1.36923077 7.50769231 1.36923077 7.50769231 -0.5 10 C-0.995 10.33 -1.49 10.66 -2 11 C-1 3.57142857 -1 3.57142857 0 0 Z " fill="#BFE4D3" transform="translate(41,53)"/>
</svg>
